<svg xmlns="http://www.w3.org/2000/svg" class="icon icon-tabler icon-tabler-robot" width="44" height="44" viewBox="0 0 24 24" stroke-width="1.5" stroke="#009988" fill="none" stroke-linecap="round" stroke-linejoin="round">
  <path stroke="none" d="M0 0h24v24H0z" fill="none"/>
  <path d="M7 7h10a2 2 0 0 1 2 2v1l1 1v3l-1 1v3a2 2 0 0 1 -2 2h-10a2 2 0 0 1 -2 -2v-3l-1 -1v-3l1 -1v-1a2 2 0 0 1 2 -2z" stroke="#32E899"   />
  <path d="M10 16h4" stroke="#32E899" />
  <circle cx="8.5" cy="11.5" r=".5" stroke="#32E899" fill="#32E899" />
  <circle cx="15.5" cy="11.5" r=".5" stroke="#32E899" fill="#32E899" />
  <path d="M9 7l-1 -4" stroke="#32E899" />
  <path d="M15 7l1 -4" stroke="#32E899" />
</svg>